<?xml version="1.0" standalone="no"?>
<!DOCTYPE svg PUBLIC "-//W3C//DTD SVG 20010904//EN"
 "http://www.w3.org/TR/2001/REC-SVG-20010904/DTD/svg10.dtd">
<svg version="1.0" xmlns="http://www.w3.org/2000/svg"
 width="723.000000pt" height="723.000000pt" viewBox="0 0 723.000000 723.000000"
 preserveAspectRatio="xMidYMid meet">
<metadata>
Created by potrace 1.14, written by Peter Selinger 2001-2017
</metadata>
<g transform="translate(0.000000,723.000000) scale(0.100000,-0.100000)"
fill="#000000" stroke="none">
<path d="M4281 7219 c-471 -36 -923 -292 -1172 -662 -107 -160 -189 -368 -223
-567 -25 -145 -36 -443 -29 -777 l6 -302 -429 -3 c-413 -3 -431 -4 -475 -24
-119 -56 -138 -156 -48 -260 22 -25 400 -414 840 -864 601 -615 809 -822 835
-830 25 -9 43 -9 67 -1 48 16 1634 1618 1728 1745 61 83 24 178 -84 212 -43
14 -123 18 -464 23 -287 5 -416 10 -424 18 -8 8 -10 119 -7 400 l4 389 27 55
c30 60 49 84 91 117 61 47 128 20 251 -103 103 -103 134 -161 174 -326 57
-230 136 -343 295 -418 105 -50 170 -65 281 -64 106 0 191 21 295 70 93 44
219 166 267 258 67 128 95 300 74 458 -46 347 -204 643 -500 937 -134 133
-225 205 -372 293 -283 170 -655 254 -1008 226z m501 -187 c331 -88 579 -234
779 -460 104 -117 144 -216 163 -397 l12 -120 87 -16 c48 -9 94 -22 102 -29
60 -50 101 -357 66 -500 -35 -146 -134 -274 -253 -330 -169 -79 -410 -48 -526
68 -54 54 -86 127 -112 257 -39 196 -84 281 -217 412 -124 122 -278 179 -388
143 -49 -16 -154 -117 -189 -180 -54 -100 -56 -116 -56 -620 0 -275 4 -471 10
-480 8 -13 75 -16 474 -20 255 -3 467 -8 471 -12 4 -3 -2 -22 -12 -41 -28 -54
-1562 -1609 -1583 -1605 -18 3 -1501 1519 -1552 1587 -35 46 -35 57 3 65 17 3
233 9 480 13 304 4 452 10 458 17 5 6 11 250 14 546 4 575 6 602 62 794 111
384 436 725 805 846 238 78 376 100 605 96 163 -3 191 -6 297 -34z"/>
<path d="M1336 4314 c-132 -32 -255 -131 -324 -262 -37 -69 -45 -74 -141 -93
-246 -48 -413 -264 -413 -534 1 -139 53 -257 165 -373 l42 -43 6 -967 c5 -878
7 -974 23 -1042 96 -407 333 -714 692 -894 106 -53 204 -91 262 -101 56 -9
182 3 182 19 0 6 -20 42 -45 80 -158 243 -268 610 -291 973 -5 78 -3 92 15
121 12 18 33 37 47 42 40 16 149 12 284 -10 221 -36 391 -86 598 -177 67 -29
138 -53 156 -53 57 0 85 58 52 105 -8 11 -61 45 -120 75 -58 30 -106 57 -106
60 0 15 333 437 398 503 115 117 264 211 402 253 108 33 255 11 336 -51 19
-14 50 -29 69 -32 35 -6 95 12 95 28 0 5 21 23 47 39 42 27 55 30 128 30 245
0 471 -166 794 -585 60 -77 113 -149 119 -161 10 -20 3 -25 -129 -84 -177 -79
-197 -104 -129 -165 30 -27 72 -22 175 23 188 82 428 148 697 192 214 35 262
30 293 -30 45 -88 21 -392 -51 -627 -13 -46 -28 -83 -33 -83 -5 0 -29 9 -54
20 l-45 20 19 83 c22 99 49 300 49 363 0 104 -46 130 -194 114 -177 -21 -354
-69 -561 -154 -83 -35 -115 -56 -115 -79 0 -5 53 -61 118 -125 66 -66 132
-142 150 -174 67 -114 123 -287 138 -423 10 -99 21 -123 57 -130 18 -3 72 -1
120 4 56 7 106 7 138 1 59 -11 174 6 301 46 366 114 657 452 759 880 50 213
51 233 56 1164 2 481 6 884 8 896 2 11 28 47 56 80 191 217 185 539 -12 737
-72 72 -139 109 -259 142 -98 26 -115 39 -151 105 -40 75 -139 169 -221 211
-266 135 -618 28 -736 -223 -18 -38 -33 -68 -34 -68 -214 -30 -344 -97 -426
-220 -44 -65 -85 -180 -96 -267 -16 -126 38 -279 137 -388 30 -33 59 -70 65
-82 8 -13 12 -75 12 -162 l0 -141 -47 0 c-74 0 -210 -37 -298 -80 -162 -80
-312 -229 -397 -396 l-41 -80 -101 52 c-285 149 -560 148 -823 -2 -42 -24 -79
-44 -82 -44 -3 0 -32 41 -65 90 -116 177 -258 306 -429 389 -168 82 -246 74
-104 -10 199 -117 337 -267 443 -481 32 -65 36 -79 25 -92 -22 -26 -34 -18
-76 50 -56 93 -184 211 -277 257 -78 39 -209 77 -263 77 -17 0 -36 5 -43 12
-9 9 -12 84 -12 277 0 297 2 304 74 390 89 106 121 196 120 336 -1 112 -21
183 -75 267 -67 104 -200 190 -344 224 -107 26 -112 28 -144 93 -38 74 -123
166 -193 208 -108 66 -287 90 -422 57z m305 -166 c104 -47 169 -129 214 -265
9 -29 22 -56 28 -60 7 -4 55 -8 107 -8 81 0 103 -4 152 -27 113 -53 200 -161
218 -273 18 -110 -19 -214 -107 -302 -89 -88 -87 -81 -93 -457 l-5 -330 -60
-41 c-79 -54 -90 -83 -73 -205 6 -49 14 -87 18 -85 4 2 12 30 19 62 8 32 20
70 27 85 13 26 50 58 66 58 5 0 8 -218 8 -485 0 -267 -4 -485 -9 -485 -4 0
-93 14 -197 30 -229 37 -394 48 -450 30 -62 -20 -104 -58 -132 -119 -22 -47
-27 -73 -30 -169 -2 -63 1 -157 8 -210 16 -127 76 -362 139 -539 l50 -143 -37
16 c-67 28 -161 84 -241 145 -196 147 -333 353 -402 599 l-24 85 -2 860 c-1
473 -5 930 -8 1015 l-7 155 -36 30 c-68 57 -109 105 -138 162 -27 53 -29 67
-29 163 0 99 2 110 33 172 63 129 169 197 317 206 50 2 98 8 107 13 9 5 22 26
29 46 45 140 146 251 262 289 69 23 210 13 278 -18z m4250 3 c104 -39 185
-131 210 -236 21 -88 25 -91 131 -98 59 -3 114 -13 150 -27 76 -28 159 -104
195 -178 26 -52 28 -67 28 -168 0 -107 -1 -112 -37 -185 -25 -51 -55 -92 -97
-132 -59 -55 -61 -59 -62 -110 -1 -28 -5 -455 -9 -947 -6 -778 -9 -906 -24
-983 -29 -150 -64 -258 -126 -382 -107 -217 -235 -348 -434 -445 -55 -27 -101
-48 -103 -47 -1 2 17 52 42 113 87 215 137 477 139 739 1 126 -1 145 -22 191
-28 61 -82 117 -136 139 -46 20 -140 21 -241 5 -86 -13 -383 -69 -407 -76 -17
-5 -18 23 -18 490 l0 496 26 0 c22 0 24 3 18 23 -4 12 -15 33 -25 46 -18 22
-19 47 -19 338 0 260 -3 320 -15 350 -9 21 -47 70 -86 109 -75 78 -105 133
-119 219 -19 115 30 256 113 331 68 62 137 87 254 92 117 5 121 8 148 92 39
125 122 215 229 250 80 26 215 22 297 -9z m-981 -1629 l0 -79 -67 -12 c-197
-36 -383 -161 -513 -343 -35 -51 -50 -57 -70 -33 -11 13 -6 29 28 98 111 221
289 369 512 427 116 29 110 32 110 -58z m-2485 -207 c93 -24 199 -81 267 -143
69 -64 138 -163 138 -198 0 -23 -55 -84 -75 -84 -6 0 -48 31 -95 70 -85 71
-174 123 -265 155 -27 10 -55 23 -61 29 -16 15 -24 162 -10 176 14 14 31 13
101 -5z m2485 -467 c0 -254 -4 -458 -8 -453 -5 6 -66 82 -137 170 -71 88 -148
182 -172 210 -25 29 -43 60 -43 74 0 15 17 43 45 72 45 49 58 76 30 65 -67
-25 -159 -47 -180 -42 -42 11 -31 46 40 129 71 83 141 140 223 181 55 28 141
54 180 55 l22 1 0 -462z m-1149 330 c38 -6 66 -14 62 -19 -4 -4 -45 -19 -89
-32 l-82 -26 -111 26 c-61 15 -111 30 -111 34 0 4 26 10 58 14 31 4 62 8 67
10 23 8 141 4 206 -7z m-1274 -253 c49 -33 143 -123 143 -137 0 -7 -54 -84
-119 -170 -65 -87 -133 -180 -151 -208 -18 -27 -34 -50 -36 -50 -2 0 -4 149
-4 331 l0 331 68 -38 c37 -20 81 -47 99 -59z m2798 -1034 c4 -8 -64 -315 -80
-360 -3 -8 -51 52 -116 144 -61 86 -109 158 -107 160 2 2 55 17 118 33 121 32
175 38 185 23z"/>
<path d="M1921 3609 c-23 -9 -22 -10 20 -32 65 -34 91 -90 87 -185 -2 -57 0
-72 11 -72 22 0 79 48 96 80 21 41 19 109 -5 147 -36 60 -139 90 -209 62z"/>
<path d="M1412 3449 c-39 -15 -66 -41 -221 -208 -97 -104 -154 -174 -161 -197
-19 -55 -8 -136 23 -183 78 -117 219 -152 352 -86 63 30 57 31 177 -15 73 -29
144 -21 230 23 127 67 178 170 125 259 -40 68 -340 373 -390 397 -46 22 -96
26 -135 10z m240 -276 c87 -87 161 -168 165 -181 12 -50 -47 -110 -117 -119
-64 -9 -107 5 -175 57 -36 27 -67 44 -71 39 -14 -23 -108 -89 -139 -98 -77
-21 -175 40 -175 109 0 31 58 100 238 288 89 92 84 93 274 -95z"/>
<path d="M5755 3952 c65 -40 116 -122 115 -187 -1 -18 -13 -56 -35 -109 -8
-19 -7 -19 15 -3 60 42 78 132 41 212 -22 48 -44 69 -94 90 -52 22 -80 20 -42
-3z"/>
<path d="M6420 3458 c0 -34 -7 -68 -20 -92 l-19 -39 24 23 c31 29 48 81 40
120 -11 51 -25 44 -25 -12z"/>
<path d="M5665 3441 c-24 -11 -110 -90 -217 -197 -148 -150 -177 -185 -183
-216 -34 -182 182 -350 360 -282 101 39 108 40 177 9 74 -34 137 -37 216 -11
96 32 174 137 174 235 0 82 -19 108 -195 271 -91 84 -181 163 -199 176 -47 33
-86 38 -133 15z m183 -242 c185 -175 192 -183 192 -225 0 -50 -61 -113 -111
-115 -53 -2 -61 0 -112 32 -59 36 -99 37 -175 5 -85 -35 -126 -40 -167 -20
-41 19 -65 58 -65 107 0 30 16 49 140 175 108 111 145 142 165 142 20 0 54
-26 133 -101z"/>
<path d="M1695 1090 c-49 -19 -57 -55 -45 -197 23 -262 89 -478 202 -667 32
-53 44 -84 50 -134 4 -36 11 -69 15 -73 11 -11 153 -14 162 -3 5 5 13 55 20
111 26 238 159 503 313 623 121 95 91 151 -117 226 -122 43 -225 68 -422 99
-83 14 -153 25 -155 24 -2 0 -12 -4 -23 -9z m291 -200 c176 -34 274 -59 274
-70 0 -4 -9 -15 -21 -26 -76 -68 -196 -265 -234 -384 -10 -30 -20 -58 -24 -62
-13 -15 -82 120 -90 175 -4 29 -17 69 -29 88 -33 54 -65 309 -39 309 2 0 75
-14 163 -30z"/>
</g>
</svg>
